<svg xmlns="http://www.w3.org/2000/svg" width="43.888" height="47.71" viewBox="0 0 43.888 47.71">
  <g id="Group_44490" data-name="Group 44490" transform="translate(-762.162 -320.29)">
    <path id="Path_25041" data-name="Path 25041" d="M16.291,0l5.034,10.2,11.257,1.636-8.146,7.94L26.36,30.987,16.291,25.694,6.223,30.987,8.146,19.776,0,11.836,11.257,10.2Z" transform="translate(778.121 320.29) rotate(31)" fill="#c5e1fb"/>
    <g id="Group_40415" data-name="Group 40415" transform="translate(771.675 332.582)">
      <g id="Group_40413" data-name="Group 40413" transform="translate(0)">
        <path id="Path_24451" data-name="Path 24451" d="M27.722,16.863v1.865l3.185,4.742a.86.86,0,0,1-.714,1.339h-2.47v3.274A4.81,4.81,0,0,1,22.91,32.9h-4.2v7.332h-9V30.921h0a3.711,3.711,0,0,1-3.71-3.71V16.863a10.858,10.858,0,1,1,21.717,0Z" transform="translate(-5.401 -4.911)" fill="none"/>
        <path id="Path_24460" data-name="Path 24460" d="M4.258,35.417h9a.6.6,0,0,0,.6-.6V28.1h3.6a5.413,5.413,0,0,0,5.407-5.407V20.01h1.875a1.471,1.471,0,0,0,1.29-.774,1.431,1.431,0,0,0-.079-1.5L22.86,13.145V11.468a11.458,11.458,0,1,0-22.917-.01V21.806a4.311,4.311,0,0,0,3.71,4.266v8.75A.612.612,0,0,0,4.258,35.417Zm8.4-1.191H4.853v-8.71a.6.6,0,0,0-.6-.6,3.114,3.114,0,0,1-3.115-3.115V11.459a10.263,10.263,0,1,1,20.526,0v1.865a.607.607,0,0,0,.1.327l3.185,4.742a.255.255,0,0,1,.01.278.269.269,0,0,1-.238.139h-2.47a.6.6,0,0,0-.6.6v3.274A4.226,4.226,0,0,1,17.443,26.9h-4.2a.6.6,0,0,0-.6.6v6.736Zm9.6-20.9Z" transform="translate(0.057)" fill="#1780df"/>
      </g>
      <path id="Path_24986" data-name="Path 24986" d="M11.172,5.577A6.2,6.2,0,0,1,3.067,8.938,4.963,4.963,0,0,1,.378,2.454,3.971,3.971,0,0,1,5.566.3a3.177,3.177,0,0,1,1.721,4.15,2.542,2.542,0,0,1-3.32,1.377,2.033,2.033,0,0,1-1.1-2.656A1.626,1.626,0,0,1,4.99,2.292a1.3,1.3,0,0,1,.7,1.7,1.041,1.041,0,0,1-1.36.564.833.833,0,0,1-.451-1.088" transform="translate(14.673 16.578) rotate(-158)" fill="none" stroke="#1780df" stroke-linecap="round" stroke-miterlimit="10" stroke-width="1.5"/>
    </g>
  </g>
</svg>
