<svg xmlns="http://www.w3.org/2000/svg" width="43.888" height="43.342" viewBox="0 0 43.888 43.342">
  <g id="Group_44504" data-name="Group 44504" transform="translate(7796.508 -1125.29)">
    <path id="Path_36785" data-name="Path 36785" d="M16.291,0l5.034,10.2,11.257,1.636-8.146,7.94L26.36,30.987,16.291,25.694,6.223,30.987,8.146,19.776,0,11.836,11.257,10.2Z" transform="translate(-7780.549 1125.29) rotate(31)" fill="#c5e1fb"/>
    <g id="Group_44498" data-name="Group 44498" transform="translate(212 17)">
      <path id="Subtraction_2" data-name="Subtraction 2" d="M.55,7.833H0V0H.55a3.934,3.934,0,0,1,3.92,3.912A3.925,3.925,0,0,1,.55,7.833Z" transform="translate(-8000.642 1139.124) rotate(180)" fill="none" stroke="#1780df" stroke-width="1"/>
      <path id="Subtraction_1" data-name="Subtraction 1" d="M.55,7.833H0V0H.55a3.925,3.925,0,0,1,3.92,3.92A3.931,3.931,0,0,1,.55,7.833Z" transform="translate(-7978.576 1131.292)" fill="none" stroke="#1780df" stroke-width="1"/>
      <path id="Path_24418" data-name="Path 24418" d="M57.523,26.643A11.536,11.536,0,0,1,46,15.12v-3.6a11.523,11.523,0,1,1,23.045,0v3.6A11.536,11.536,0,0,1,57.523,26.643Zm0-25.533A10.423,10.423,0,0,0,47.11,11.523v3.6a10.413,10.413,0,1,0,20.826,0v-3.6A10.423,10.423,0,0,0,57.523,1.11Zm0,0" transform="translate(-8046.858 1120.74)" fill="#1780df"/>
      <path id="Path_36784" data-name="Path 36784" d="M103.137,133.118a1.618,1.618,0,1,1-1.618-1.618,1.614,1.614,0,0,1,1.618,1.618Zm0,0" transform="translate(-8095.773 1000.596)" fill="#1780df"/>
      <path id="Path_36783" data-name="Path 36783" d="M209.537,133.118a1.618,1.618,0,1,1-1.618-1.618,1.614,1.614,0,0,1,1.618,1.618Zm0,0" transform="translate(-8192.335 1000.596)" fill="#1780df"/>
      <path id="Path_24423" data-name="Path 24423" d="M140.107,191.614a3.107,3.107,0,1,1,3.107-3.107,3.114,3.114,0,0,1-3.107,3.107Zm0-5.1a2,2,0,1,0,2,2,2,2,0,0,0-2-2Zm0,0" transform="translate(-8129.442 952.485)" fill="#1780df"/>
      <path id="Path_36782" data-name="Path 36782" d="M135.146,7.831a3.018,3.018,0,0,1-2.506-1.322A2.028,2.028,0,1,1,136,4.234l.305.462a.553.553,0,0,1-.916.62l-.314-.462a.912.912,0,0,0-1.23-.277.9.9,0,0,0-.425.592.887.887,0,0,0,.139.712,1.925,1.925,0,0,0,2.6.555,2.345,2.345,0,0,0,.731-3.311L135.368.868a.554.554,0,1,1,.925-.61L137.8,2.514A3.467,3.467,0,0,1,136.718,7.4a3.035,3.035,0,0,1-1.572.435Zm0,0" transform="translate(-8125.167 1120.732)" fill="#1780df"/>
    </g>
  </g>
</svg>
