<svg xmlns="http://www.w3.org/2000/svg" width="45.38" height="44.816" viewBox="0 0 45.38 44.816">
  <g id="Group_44491" data-name="Group 44491" transform="translate(-1062.162 -334.29)">
    <path id="Path_25177" data-name="Path 25177" d="M403.45,674.181l5.205,10.547,11.64,1.691-8.423,8.21,1.988,11.593-10.411-5.473-10.411,5.473,1.988-11.593-8.423-8.21,11.64-1.691Z" transform="translate(383.547 -27.129) rotate(-31)" fill="#d1dde9"/>
    <g id="Page-1" transform="translate(1067.996 346.991)">
      <g id="_002---Virus" data-name="002---Virus" transform="translate(0.004 0.003)">
        <path id="Shape" d="M24.417,23.834A2.417,2.417,0,1,0,22,21.417,2.417,2.417,0,0,0,24.417,23.834Zm0-3.867a1.45,1.45,0,1,1-1.45,1.45A1.45,1.45,0,0,1,24.417,19.967Z" transform="translate(-11.367 -9.817)" fill="#1780df"/>
        <path id="Shape-2" data-name="Shape" d="M36.45,26.9A1.45,1.45,0,1,0,35,25.45,1.45,1.45,0,0,0,36.45,26.9Zm0-1.934a.483.483,0,1,1-.483.483A.483.483,0,0,1,36.45,24.967Z" transform="translate(-18.083 -12.4)" fill="#1780df"/>
        <path id="Shape-3" data-name="Shape" d="M17.45,31.9A1.45,1.45,0,1,0,16,30.45,1.45,1.45,0,0,0,17.45,31.9Zm0-1.934a.483.483,0,1,1-.483.483A.483.483,0,0,1,17.45,29.967Z" transform="translate(-8.268 -14.983)" fill="#1780df"/>
        <path id="Shape-4" data-name="Shape" d="M25,33.9A2.9,2.9,0,1,0,27.9,31,2.9,2.9,0,0,0,25,33.9Zm4.834,0A1.934,1.934,0,1,1,27.9,31.967,1.934,1.934,0,0,1,29.834,33.9Z" transform="translate(-12.917 -16.016)" fill="#1780df"/>
        <path id="Shape-5" data-name="Shape" d="M1.936,16.438a1.907,1.907,0,0,0,1.015-.29.856.856,0,0,1,.491-.162c.62.032,1.54.1,2.539.242a8.407,8.407,0,0,0,.277,1.044c-.835.654-1.608,1.176-2.107,1.5a.711.711,0,0,1-.421.085,1.96,1.96,0,0,0-1.378.472,1.933,1.933,0,0,0,2.229,3.137,1.9,1.9,0,0,0,.744-.764.859.859,0,0,1,.338-.38c.473-.242,1.663-.764,2.332-1.048a8.578,8.578,0,0,0,.757.745c-.413,1.028-.847,1.906-1.085,2.363a.673.673,0,0,1-.317.279,1.934,1.934,0,1,0,2.8,1.673.87.87,0,0,1,.105-.506c.338-.522.859-1.286,1.482-2.082a8.45,8.45,0,0,0,1.029.281c.067.592.226,2.03.252,2.585a.681.681,0,0,1-.131.4,1.939,1.939,0,0,0,1.29,2.975,2.013,2.013,0,0,0,.324.025,1.929,1.929,0,0,0,1.934-1.934,1.906,1.906,0,0,0-.3-1.029.824.824,0,0,1-.153-.474c.032-.62.1-1.539.242-2.539a8.563,8.563,0,0,0,1.043-.285c.685.874,1.226,1.687,1.5,2.12a.677.677,0,0,1,.083.414A1.94,1.94,0,0,0,20.8,27.322a1.885,1.885,0,0,0,.662-.119,1.934,1.934,0,0,0,1-2.781,1.9,1.9,0,0,0-.757-.737.87.87,0,0,1-.387-.345c-.282-.554-.684-1.385-1.063-2.325a8.532,8.532,0,0,0,.757-.751c1.16.5,2.018.894,2.363,1.074a.677.677,0,0,1,.282.32,1.937,1.937,0,1,0,2.7-2.549,1.911,1.911,0,0,0-1.048-.256.794.794,0,0,1-.476-.1c-.741-.479-1.441-.976-2.075-1.483a8.46,8.46,0,0,0,.272-1.04c1.1-.156,2.071-.218,2.584-.242a.667.667,0,0,1,.4.135,1.934,1.934,0,1,0,1.063-3.551,1.906,1.906,0,0,0-1.015.29.888.888,0,0,1-.491.162c-.62-.032-1.54-.1-2.538-.242a8.393,8.393,0,0,0-.277-1.045c.834-.653,1.607-1.176,2.107-1.5a.7.7,0,0,1,.419-.084,1.948,1.948,0,0,0,1.378-.473,1.934,1.934,0,1,0-2.973-2.373.859.859,0,0,1-.338.38c-.473.242-1.663.764-2.332,1.048a8.578,8.578,0,0,0-.755-.745c.413-1.028.847-1.906,1.085-2.363a.677.677,0,0,1,.317-.279,1.934,1.934,0,1,0-2.545-2.7,1.906,1.906,0,0,0-.259,1.022.87.87,0,0,1-.105.506c-.338.522-.859,1.286-1.482,2.082a8.538,8.538,0,0,0-1.029-.281c-.067-.595-.227-2.037-.252-2.588a.667.667,0,0,1,.13-.39,1.934,1.934,0,1,0-3.546-1.069,1.909,1.909,0,0,0,.3,1.028.829.829,0,0,1,.154.477c-.028.529-.17,1.821-.259,2.541a8.4,8.4,0,0,0-1.024.281c-.684-.87-1.225-1.686-1.5-2.12a.677.677,0,0,1-.082-.413,1.934,1.934,0,1,0-3.607.857,1.9,1.9,0,0,0,.758.736.867.867,0,0,1,.387.345c.282.554.684,1.386,1.063,2.325A8.523,8.523,0,0,0,8,8.743c-.546-.237-1.87-.816-2.364-1.074a.677.677,0,0,1-.282-.32,1.938,1.938,0,1,0-1.65,2.8.8.8,0,0,1,.475.1A25.219,25.219,0,0,1,6.253,11.74a8.5,8.5,0,0,0-.272,1.04c-1.1.155-2.07.218-2.583.242a.677.677,0,0,1-.4-.135,1.934,1.934,0,1,0-1.063,3.551ZM9.448,24.3a1.8,1.8,0,0,0-.261,1.063.947.947,0,0,1-.13.51.967.967,0,1,1-1.272-1.35,1.61,1.61,0,0,0,.741-.7c.269-.519.643-1.284,1.015-2.175a8.725,8.725,0,0,0,1.263.729C10.238,23.113,9.767,23.809,9.448,24.3Zm11.01-.518a1.806,1.806,0,0,0,.791.758.942.942,0,0,1,.376.366.967.967,0,1,1-1.8.428,1.612,1.612,0,0,0-.237-.991c-.26-.406-.752-1.147-1.377-1.963a8.653,8.653,0,0,0,1.261-.734C19.828,22.505,20.194,23.262,20.458,23.78Zm5.057-9.794a1.793,1.793,0,0,0,1.051-.306.993.993,0,0,1,1.245.2.967.967,0,0,1-1.273,1.434,1.627,1.627,0,0,0-.977-.29c-.481.022-1.368.078-2.387.211.02-.242.031-.483.031-.728s-.011-.488-.031-.729c.922.12,1.76.181,2.34.211ZM19.561,4.71a1.8,1.8,0,0,0,.261-1.063.947.947,0,0,1,.13-.51.967.967,0,1,1,1.272,1.35,1.614,1.614,0,0,0-.74.7c-.269.519-.643,1.284-1.013,2.175a8.725,8.725,0,0,0-1.263-.729c.563-.739,1.034-1.434,1.353-1.923Zm-11.01.518A1.8,1.8,0,0,0,7.76,4.47.947.947,0,0,1,7.384,4.1a.967.967,0,1,1,1.8-.425,1.612,1.612,0,0,0,.237.991c.314.491.79,1.2,1.378,1.964a8.708,8.708,0,0,0-1.262.731c-.358-.862-.724-1.619-.988-2.137ZM4.7,9.445a1.728,1.728,0,0,0-1.045-.258.936.936,0,0,1-.522-.128.967.967,0,1,1,1.35-1.274,1.616,1.616,0,0,0,.7.744c.5.26,1.732.8,2.422,1.1A.967.967,0,0,0,8.72,9.377,7.716,7.716,0,0,1,12.954,6.93a.967.967,0,0,0,.777-.838c.084-.734.228-2.048.257-2.6a1.769,1.769,0,0,0-.305-1.045.945.945,0,0,1-.145-.51.967.967,0,1,1,1.772.539,1.607,1.607,0,0,0-.29.967c.026.559.172,1.9.257,2.653a.967.967,0,0,0,.777.836,7.709,7.709,0,0,1,4.232,2.446.969.969,0,0,0,1.112.253c.677-.295,1.885-.828,2.385-1.081a1.8,1.8,0,0,0,.748-.784.955.955,0,0,1,.372-.381.967.967,0,0,1,1.124,1.562.992.992,0,0,1-.7.242,1.626,1.626,0,0,0-1,.235c-.519.334-1.319.874-2.182,1.55a.971.971,0,0,0-.313,1.076,7.757,7.757,0,0,1,0,4.91.972.972,0,0,0,.313,1.074c.663.52,1.387,1.034,2.153,1.53a1.744,1.744,0,0,0,1.044.26.924.924,0,0,1,.522.128.967.967,0,1,1-1.35,1.274,1.613,1.613,0,0,0-.7-.744c-.494-.258-1.729-.8-2.421-1.1a.967.967,0,0,0-1.112.254,7.68,7.68,0,0,1-4.563,2.505.487.487,0,0,0-.4.415c-.18,1.165-.262,2.256-.3,2.966a1.758,1.758,0,0,0,.3,1.043.945.945,0,0,1,.147.511.966.966,0,1,1-1.77-.537,1.621,1.621,0,0,0,.29-.971c-.026-.563-.172-1.9-.257-2.65a.967.967,0,0,0-.776-.835,7.709,7.709,0,0,1-4.233-2.446.978.978,0,0,0-.731-.332.962.962,0,0,0-.381.079c-.677.295-1.885.828-2.385,1.081a1.8,1.8,0,0,0-.748.784.952.952,0,0,1-.372.381.967.967,0,0,1-1.125-1.563.988.988,0,0,1,.695-.242,1.637,1.637,0,0,0,1-.236c.519-.334,1.318-.874,2.183-1.551a.971.971,0,0,0,.313-1.075,7.757,7.757,0,0,1,0-4.909.972.972,0,0,0-.313-1.076C6.2,10.455,5.471,9.941,4.7,9.445ZM.981,14.336a.973.973,0,0,1,1.487-.64,1.617,1.617,0,0,0,.977.29c.58-.026,1.43-.085,2.387-.21-.02.242-.03.483-.03.728s.011.488.031.729c-.922-.12-1.76-.181-2.34-.211a1.814,1.814,0,0,0-1.051.306.992.992,0,0,1-1.243-.2.964.964,0,0,1-.215-.8Z" transform="translate(-0.004 -0.003)" fill="#1780df"/>
      </g>
    </g>
  </g>
</svg>
