<svg xmlns="http://www.w3.org/2000/svg" width="36.945" height="37.34" viewBox="0 0 36.945 37.34">
  <g id="Group_44493" data-name="Group 44493" transform="translate(-1066 -193.958)">
    <g id="Group_43630" data-name="Group 43630" transform="translate(1066 198.121)">
      <path id="Polygon_8" data-name="Polygon 8" d="M21.466,0a2,2,0,0,1,1.746,1.025l6.43,11.513a2,2,0,0,1,0,1.95L23.212,26a2,2,0,0,1-1.746,1.025H8.72A2,2,0,0,1,6.974,26L.545,14.488a2,2,0,0,1,0-1.95L6.974,1.025A2,2,0,0,1,8.72,0Z" transform="translate(27.118 -4.162) rotate(71)" fill="#b3e8ca"/>
      <g id="Group_40400" data-name="Group 40400" transform="translate(0 1.703)">
        <path id="Path_24913" data-name="Path 24913" d="M594.372,385.7a14.9,14.9,0,0,1-5.889,11.129,13.632,13.632,0,0,1-19.526-2.607,16.37,16.37,0,0,1,.05-19.9,13.807,13.807,0,0,1,22.925,1.291C593.61,378.311,594.417,381.252,594.372,385.7Zm-9.2-.393c1.989-1.02,2.147-1.02,4.138-.114a4.615,4.615,0,0,0,.975.368,2.232,2.232,0,0,0,2.828-2.433,14.439,14.439,0,0,0-2.573-7.392,12.511,12.511,0,0,0-17.64-3.409,14.865,14.865,0,0,0-4.415,18.842c2.228,4.258,5.673,6.965,10.556,7.341a13.214,13.214,0,0,0,13.781-10.988c.068-.351.063-.717.107-1.26a4.585,4.585,0,0,1-4.6-.147c-1.246-.687-1.947-.364-2.736,1.03.2.053.389.1.575.153a2.706,2.706,0,0,1,2.261,3.429,8.1,8.1,0,0,1-.388,1.593c-.8,2.236-1.987,2.69-4.136,1.625-.071-.035-.181.009-.273.016-1.988,3.418-5.032,4.064-8.261,1.753-.121-.087-.242-.176-.355-.274a12.333,12.333,0,0,1-4.337-10.938,6.473,6.473,0,0,1,1.819-4.172,3.917,3.917,0,0,0,1.149-2.652,5.6,5.6,0,0,1,3.5-5,6.076,6.076,0,0,1,6.364.734c2.787,2.085,3.169,6.243.835,8.4-.638.588-1.18,1.279-1.834,2l-2.138.823.756.97C583.052,383.9,583.3,383.879,585.169,385.3Zm-8.541-2.548.05-.449a2.411,2.411,0,0,1,.968-.048,2.814,2.814,0,0,1,.934.731c.613.659,1.132.565,1.96.211,1.111-.475,1.7-1.459,2.627-2.077a3.376,3.376,0,0,0,1.431-3.537,4.882,4.882,0,0,0-5.023-4.209,4.628,4.628,0,0,0-4.7,4.477,5.265,5.265,0,0,1-1.445,3.334,6.233,6.233,0,0,0-1.274,2.321,11.012,11.012,0,0,0,3.942,11.2,6.988,6.988,0,0,0,1.728.869,3.359,3.359,0,0,0,4.713-2.861c.13-.929.008-1.89.045-2.834a8.553,8.553,0,0,1,.225-1.224c1.1.271.906,1.012,1.038,1.61a8.06,8.06,0,0,0,.69,2.373,1.082,1.082,0,0,0,2.015-.1,8.307,8.307,0,0,0,.644-2.566c.044-.374-.308-.8-.48-1.194-.11,2.914-.11,2.914-1.075,3.178-.175-.925-.277-1.863-.536-2.754-.595-2.046-2.356-2.725-4.071-1.472A11.865,11.865,0,0,0,579,390.071c-.21.265-.233.688-.46.927a2.37,2.37,0,0,1-.842.363c-.083-.261-.284-.554-.226-.778a16.7,16.7,0,0,1,.635-1.734l-2.38-2.469c1.842-.766,2.189,1.251,3.338,1.243l1.312-.994Z" transform="translate(-565.613 -368.819)" fill="#1780df"/>
        <path id="Path_24916" data-name="Path 24916" d="M587.3,388.977c-.877.019-1.127-.44-1.1-1.123a1.809,1.809,0,0,1,1.532-1.61c.659-.066,1.193.1,1.208,1.058l-1.321.417Z" transform="translate(-574.592 -376.413)" fill="#1780df"/>
      </g>
    </g>
  </g>
</svg>
