<svg xmlns="http://www.w3.org/2000/svg" width="31" height="30.209" viewBox="0 0 31 30.209">
  <g id="Group_44497" data-name="Group 44497" transform="translate(-1064 -483)">
    <circle id="Ellipse_2808" data-name="Ellipse 2808" cx="14.5" cy="14.5" r="14.5" transform="translate(1066 483)" fill="#fcbaba"/>
    <g id="Group_43634" data-name="Group 43634" transform="translate(171.825 99.201)">
      <path id="Path_25162" data-name="Path 25162" d="M922.037,406.474c-1.04.144-1.118.871-1.121,1.623-.008,2.3,0,4.609-.007,6.914,0,.443-.08.886-.115,1.256-.618.221-.826-.046-.883-.415a8.517,8.517,0,0,1-.059-1.276c0-1.92,0-3.841,0-5.761,0-2.374.026-2.419,2.016-3.672-.862-.541-1.926-.913-1.967-2.1a17.252,17.252,0,0,1,.14-2.4c.011-.107.318-.184.516-.289.6.692.277,1.449.351,2.134.112,1.041.337,1.253,1.463,1.227a1.419,1.419,0,0,0,.315-1.536c-.164-.528-.362-1.046-.539-1.57a4.194,4.194,0,0,1,5.47-5.576,6.65,6.65,0,0,1,3.808,3.252,13.2,13.2,0,0,1,.09,13.875,6.832,6.832,0,0,1-4.2,3.525,3.96,3.96,0,0,1-4.172-1.28,4.384,4.384,0,0,1-1.072-4.5,8.794,8.794,0,0,1,.475-1.048C923.1,407.716,923.059,407.526,922.037,406.474Zm3.738.341c-.117.2-.158.38-.243.4-1.5.414-1.916,1.747-2.4,2.945a3.259,3.259,0,0,0,.9,3.635,2.979,2.979,0,0,0,3.515.766,6.317,6.317,0,0,0,2.73-2.257,12.634,12.634,0,0,0,.171-13.68,6.687,6.687,0,0,0-2.727-2.458,3.28,3.28,0,0,0-4.568,1.475,4.964,4.964,0,0,0,1.629,5.228c.317.22.514.452.2.9h-1.237c-1.074,1.625-1.07,1.68.141,2.986C924.489,406.677,925.1,405.967,925.776,406.816Z" transform="translate(-13.209 -2.34)" fill="#1780df"/>
      <path id="Path_25163" data-name="Path 25163" d="M904.993,411.518a8.018,8.018,0,0,1-.233-1.311c-.023-2.393-.013-4.785-.013-7.178,0-.737-.136-1.376-1.024-1.5-1.071.932-1.174,1.181-.507,2.375a4.511,4.511,0,0,1-.1,4.856,4.182,4.182,0,0,1-5.225,1.789,7.457,7.457,0,0,1-3.35-2.692,13.044,13.044,0,0,1,.4-15.525,6.009,6.009,0,0,1,4.577-2.484,4.076,4.076,0,0,1,4.1,5.729,11.383,11.383,0,0,0-.59,1.948c-.129.829.161,1.3.638,1.332.547.038.988-.439,1.062-1.216.048-.509.01-1.025.038-1.537.023-.43.172-.756.79-.609a4.872,4.872,0,0,1,.158,2.695c-.089,1.1-1.073,1.419-1.78,1.92.04.123.043.188.067.2,1.631.6,1.851,1.906,1.816,3.417-.051,2.178-.009,4.358-.018,6.538C905.8,410.757,905.884,411.318,904.993,411.518Zm-4.182-12.608c-.376-.493-.2-.743.19-1a2.6,2.6,0,0,0,.909-.825,8.221,8.221,0,0,0,.767-2.027c.68-3.122-1.324-4.662-3.884-4.124a5.043,5.043,0,0,0-2.51,1.452c-4.156,4.085-4.127,11.954.091,15.994a6.085,6.085,0,0,0,1.7,1.113,3.17,3.17,0,0,0,4.248-1.453,4.114,4.114,0,0,0-1.777-5.552,3.315,3.315,0,0,1-.624-.544c.691-.975,1.376-.082,1.988-.143,1.163-1.408,1.165-1.53.083-2.97Z" transform="translate(0 0)" fill="#1780df"/>
    </g>
  </g>
</svg>
