<svg xmlns="http://www.w3.org/2000/svg" width="38.634" height="37.008" viewBox="0 0 38.634 37.008"><g transform="translate(-1068 -482.121)"><path d="M21.341,0a2,2,0,0,1,1.741,1.015l6.371,11.26a2,2,0,0,1,0,1.97L23.081,25.5a2,2,0,0,1-1.741,1.015H8.669A2,2,0,0,1,6.928,25.5L.557,14.245a2,2,0,0,1,0-1.97L6.928,1.015A2,2,0,0,1,8.669,0Z" transform="translate(1096.864 482.121) rotate(71)" fill="#fcbaba"/><g transform="translate(1068 484)"><path d="M597.359,387.449a16.446,16.446,0,0,1-6.5,12.284,15.048,15.048,0,0,1-21.554-2.877,18.07,18.07,0,0,1,.055-21.962,15.241,15.241,0,0,1,25.305,1.425C596.517,379.3,597.408,382.543,597.359,387.449Zm-10.159-.434c2.2-1.126,2.37-1.126,4.567-.126a5.092,5.092,0,0,0,1.076.406,2.464,2.464,0,0,0,3.122-2.686,15.939,15.939,0,0,0-2.84-8.159,13.81,13.81,0,0,0-19.471-3.763,16.409,16.409,0,0,0-4.873,20.8c2.459,4.7,6.262,7.688,11.652,8.1a14.586,14.586,0,0,0,15.212-12.129c.075-.388.07-.792.118-1.391a5.061,5.061,0,0,1-5.08-.162c-1.376-.758-2.149-.4-3.02,1.137.222.059.429.112.635.169,2.022.554,2.79,1.7,2.5,3.785a8.943,8.943,0,0,1-.428,1.758c-.885,2.469-2.193,2.97-4.565,1.793-.078-.039-.2.01-.3.018-2.195,3.773-5.554,4.486-9.118,1.935-.134-.1-.268-.194-.392-.3a13.614,13.614,0,0,1-4.788-12.074,7.146,7.146,0,0,1,2.008-4.605,4.323,4.323,0,0,0,1.268-2.928,6.183,6.183,0,0,1,3.865-5.515,6.707,6.707,0,0,1,7.025.81c3.076,2.3,3.5,6.891.921,9.268-.7.649-1.3,1.412-2.025,2.2l-2.36.908.834,1.071C584.863,385.462,585.137,385.443,587.2,387.016Zm-9.428-2.813.055-.5a2.661,2.661,0,0,1,1.068-.054,3.107,3.107,0,0,1,1.031.807c.677.727,1.25.624,2.164.233,1.226-.524,1.874-1.611,2.9-2.292a3.727,3.727,0,0,0,1.579-3.9,5.389,5.389,0,0,0-5.545-4.646,5.109,5.109,0,0,0-5.188,4.941,5.811,5.811,0,0,1-1.595,3.68,6.881,6.881,0,0,0-1.406,2.563,12.155,12.155,0,0,0,4.351,12.358,7.714,7.714,0,0,0,1.907.96,3.708,3.708,0,0,0,5.2-3.158c.143-1.025.009-2.086.049-3.128a9.441,9.441,0,0,1,.248-1.351c1.217.3,1,1.117,1.145,1.777a8.9,8.9,0,0,0,.761,2.619,1.194,1.194,0,0,0,2.225-.106,9.168,9.168,0,0,0,.711-2.833c.049-.413-.34-.878-.53-1.318-.122,3.216-.122,3.216-1.187,3.508-.193-1.021-.306-2.056-.592-3.04-.657-2.259-2.6-3.008-4.494-1.625a13.1,13.1,0,0,0-2.243,2.579c-.232.293-.258.759-.508,1.023a2.616,2.616,0,0,1-.929.4c-.091-.288-.314-.611-.249-.859a18.427,18.427,0,0,1,.7-1.915l-2.627-2.725c2.033-.845,2.416,1.381,3.684,1.372l1.448-1.1Z" transform="translate(-565.613 -368.819)" fill="#1780df"/><path d="M587.416,389.262c-.968.021-1.244-.485-1.214-1.24a2,2,0,0,1,1.691-1.778c.728-.073,1.316.106,1.334,1.168l-1.458.461Z" transform="translate(-573.386 -375.393)" fill="#1780df"/></g></g></svg>