<svg xmlns="http://www.w3.org/2000/svg" width="39.382" height="38.188" viewBox="0 0 39.382 38.188"><g transform="translate(-768.521 -405.531)"><path d="M21.341,0a2,2,0,0,1,1.741,1.015l6.371,11.26a2,2,0,0,1,0,1.97L23.081,25.5a2,2,0,0,1-1.741,1.015H8.669A2,2,0,0,1,6.928,25.5L.557,14.245a2,2,0,0,1,0-1.97L6.928,1.015A2,2,0,0,1,8.669,0Z" transform="translate(782.18 405.531) rotate(31)" fill="#fee2ba"/><g transform="translate(774 408)"><path d="M341.121,567.245c-.239-.316-.667-.618-.688-.948-.228-3.462-.063-6.845,2.333-9.685a8.049,8.049,0,0,0,.954-1.344c.763-1.415.27-2.4-1.308-2.571a25.368,25.368,0,0,0-2.64-.05c-1.927,0-3.856-.05-5.78.022-1.946.073-2.5,1.21-1.491,2.883a3.346,3.346,0,0,0,.389.533c2.64,2.876,3,6.382,2.749,10.042a1.838,1.838,0,0,1-.715,1.1c-1.063-1.47-.337-3.123-.731-4.607-8.451-5.216-10.647-16.474,0-23.716.405-1.88-.3-3.89.411-5.744l.467-.115c.194.36.54.711.56,1.081.225,4.178.071,8.275-2.7,11.78a3.327,3.327,0,0,0-.759,2.841,10.847,10.847,0,0,0,2.206-.023,16.335,16.335,0,0,1,7.2.025,9.829,9.829,0,0,0,2.185.025,2.557,2.557,0,0,0-.5-2.655c-2.673-3.449-3.108-7.432-2.877-11.589.032-.574-.126-1.278,1.015-1.407a6.636,6.636,0,0,1,.312,1.274,26.893,26.893,0,0,1,.011,2.971,2.518,2.518,0,0,0,1.25,2.45,13.3,13.3,0,0,1,5.968,9.666c.517,4.93-1.561,8.843-5.355,11.759a4,4,0,0,0-1.872,3.97,9.671,9.671,0,0,1-.161,1.875Zm1.1-7.257.454.342c2.956-2.447,4.992-5.475,5-9.476.012-4.056-1.983-7.16-5.256-9.5a24.544,24.544,0,0,0,1.474,3.213,15.055,15.055,0,0,1,1.379,3.133c.359,1.562-.383,2.4-2,2.521a7.3,7.3,0,0,1-2.129-.157,13.835,13.835,0,0,0-6.374-.01,6.535,6.535,0,0,1-1.8.155c-1.895-.09-2.722-1.187-2.114-2.991a23.433,23.433,0,0,1,1.569-3.067c.458-.892.9-1.793,1.348-2.689-7.439,5.026-6.721,14.319-.111,18.682a16.545,16.545,0,0,0-1.315-2.518,21.641,21.641,0,0,1-1.36-2.058c-.945-2.009,0-3.922,2.2-4.106,2.569-.214,5.164-.136,7.749-.144a13.052,13.052,0,0,1,2.459.207,2.2,2.2,0,0,1,1.93,2.147,4.184,4.184,0,0,1-1,3.207C343.571,557.878,342.917,558.948,342.222,559.988Z" transform="translate(-327.009 -533.045)" fill="#1780df"/></g></g></svg>